@startuml
hide empty description
state CoffeeMachineControllerImpl {
[*] --> S1
S1 --> S2: switch_on_off()
S2 --> S3: / set_time(5)
state S3 {
[*] --> S5
S5 --> S7: set_time(5)
state S7 {
[*] --> S9: / set_on()
S9 --> [*]
}
S7 --> [*]
}
S3 --> S11: / set_heater_on()
S11 --> S12: switch_on_off()
S12 --> S13: / set_off()
S13 --> S14: / set_heater_off()
S14 --> [*]
}
@enduml
